<svg width="879" height="305" viewBox="0 0 879 305" fill="none" xmlns="http://www.w3.org/2000/svg">
<mask id="mask0_210_99" style="mask-type:luminance" maskUnits="userSpaceOnUse" x="127" y="0" width="178" height="305">
<path d="M127 0.744797H304.323V304.839H127V0.744797Z" fill="white"/>
</mask>
<g mask="url(#mask0_210_99)">
<path d="M302.896 132.672L283.542 125.797C280.073 108.813 273.38 93.0052 264.156 79.0208L272.969 60.474C264.786 49.7813 255.214 40.2135 244.531 32.026L225.984 40.8438C212 31.6146 196.193 24.9271 179.203 21.4531L172.323 2.10938C165.745 1.24479 159.037 0.786461 152.219 0.786461C145.401 0.786461 138.693 1.24479 132.115 2.10938L128.24 13.0208L127.13 16.1354V51.4896C135.167 49.5 143.568 48.4531 152.219 48.4531C209.844 48.4531 256.547 95.1563 256.547 152.776C256.547 198.135 227.599 236.74 187.167 251.109C182.995 252.599 178.698 253.823 174.297 254.766L183.26 245.818L204.49 224.63V206.438C212.792 204.563 218.99 197.141 218.99 188.271C218.99 177.979 210.651 169.646 200.365 169.646C190.078 169.646 181.734 177.979 181.734 188.271C181.734 197.135 187.932 204.552 196.229 206.432V221.208L167.385 250L165.51 251.865V179.089L204.49 140.188V121.995C212.792 120.12 218.99 112.693 218.99 103.828C218.99 93.5365 210.651 85.1979 200.365 85.1979C190.078 85.1979 181.734 93.5365 181.734 103.828C181.734 112.693 187.932 120.115 196.229 121.995V136.76L157.26 175.661V304.688C157.938 304.667 158.604 304.641 159.281 304.609C161.365 304.505 163.448 304.37 165.51 304.193C166.188 304.13 166.865 304.073 167.536 304.005C169.141 303.849 170.734 303.661 172.323 303.448L179.203 284.099C196.193 280.63 212 273.938 225.984 264.714L244.531 273.521C255.214 265.349 264.786 255.771 272.969 245.089L264.156 226.536C273.38 212.557 280.073 196.75 283.542 179.766L302.896 172.875C303.76 166.302 304.214 159.594 304.214 152.776C304.214 145.958 303.76 139.25 302.896 132.672Z" fill="#003970"/>
</g>
<mask id="mask1_210_99" style="mask-type:luminance" maskUnits="userSpaceOnUse" x="0" y="22" width="183" height="283">
<path d="M0.229126 22.3333H182.646V304.839H0.229126V22.3333Z" fill="white"/>
</mask>
<g mask="url(#mask1_210_99)">
<path d="M163.995 93.9844C157.411 93.9844 152.078 88.6511 152.078 82.0625C152.078 75.4792 157.411 70.1406 163.995 70.1406C170.583 70.1406 175.922 75.4792 175.922 82.0625C175.922 88.6511 170.583 93.9844 163.995 93.9844ZM100.036 136.156C93.4427 136.156 88.1041 130.818 88.1041 124.229C88.1041 117.646 93.4427 112.307 100.036 112.307C106.615 112.307 111.953 117.646 111.953 124.229C111.953 130.818 106.615 136.156 100.036 136.156ZM47.8958 152.776C47.8958 109.818 73.8541 72.9323 110.937 56.9427V80.3177L138.917 108.172V216.375L104.167 181.609V142.396C112.464 140.521 118.661 133.099 118.661 124.229C118.661 113.943 110.318 105.599 100.036 105.599C89.75 105.599 81.401 113.943 81.401 124.229C81.401 133.099 87.6093 140.526 95.9114 142.396V185.036L138.917 228.047V256.266C87.5833 249.729 47.8958 205.885 47.8958 152.776ZM163.995 63.4323C153.708 63.4323 145.375 71.7708 145.375 82.0625C145.375 90.9323 151.562 98.349 159.865 100.229V134.432L147.167 147.104V104.745L119.198 76.8906V22.8438C118.781 22.9479 118.365 23.0469 117.953 23.1615C115.594 23.7865 113.25 24.4688 110.937 25.2188C99.3385 28.9635 88.4375 34.2604 78.4635 40.8438L59.9166 32.026C49.2239 40.2136 39.6562 49.7813 31.4687 60.474L40.2864 79.0208C31.0573 93.0052 24.3645 108.813 20.8906 125.797L1.55204 132.672C0.682252 139.25 0.229126 145.958 0.229126 152.776C0.229126 159.594 0.682252 166.302 1.55204 172.875L20.8906 179.766C24.3645 196.75 31.052 212.557 40.2864 226.536L31.4687 245.089C39.6562 255.771 49.2239 265.349 59.9166 273.521L78.4635 264.714C92.4479 273.938 108.255 280.63 125.24 284.099L132.115 303.448C134.37 303.745 136.635 303.995 138.917 304.193C139.589 304.25 140.26 304.307 140.937 304.354C143.005 304.505 145.078 304.62 147.167 304.688V158.766L168.12 137.854V100.234C176.427 98.3542 182.625 90.9323 182.625 82.0625C182.625 71.7708 174.286 63.4323 163.995 63.4323Z" fill="#001F3D"/>
</g>
<path d="M397.17 58.6077L393.669 58.9071C391.815 59.0402 390.654 60.2712 390.169 62.6002L376.755 118.295H362.162L350.966 72.8143H350.654L339.805 118.295H324.762L310.066 59.3064L304 59.007V50.3233H330.412V58.6077L326.911 58.9071C324.71 59.1068 323.618 59.9968 323.618 61.5688C323.618 61.835 323.653 62.151 323.722 62.5004L332.977 101.926H333.393L344.485 55.7464H358.211L369.718 102.159H369.926L378.973 59.4395L373.219 59.007V50.3233H397.17V58.6077Z" fill="#001F3D"/>
<path d="M427.94 65.3617C433.278 65.3617 437.506 66.6093 440.626 69.088C443.746 71.575 445.305 75.0684 445.305 79.5683C445.305 82.5626 444.621 85.2077 443.26 87.4867C441.917 89.7741 440.253 91.5624 438.269 92.8433C436.276 94.1325 433.876 95.1889 431.059 96.004C426.293 97.3847 420.938 98.0668 414.976 98.0668C415.184 101.685 416.346 104.604 418.477 106.817C420.6 109.013 423.858 110.111 428.252 110.111C432.662 110.111 437.073 108.614 441.493 105.619L445.513 113.904C444.101 115.126 441.709 116.391 438.338 117.697C434.959 118.977 431.111 119.626 426.796 119.626C418.131 119.626 411.77 117.331 407.732 112.739C403.685 108.131 401.666 101.81 401.666 93.7749C401.666 85.7234 403.963 78.986 408.564 73.5463C413.183 68.0899 419.638 65.3617 427.94 65.3617ZM423.122 88.7177C425.704 88.2769 428.096 87.2871 430.297 85.7566C432.489 84.2095 433.59 82.3797 433.59 80.267C433.59 76.1248 431.458 74.0453 427.212 74.0453C423.235 74.0453 420.184 75.5675 418.061 78.6034C415.93 81.6227 414.751 85.2493 414.526 89.4829C417.663 89.4164 420.531 89.1669 423.122 88.7177Z" fill="#001F3D"/>
<path d="M472.024 66.8921V109.811L478.124 110.111V118.295H452.752V110.543L456.288 110.211C458.341 110.011 459.373 108.93 459.373 106.95V78.5369C459.373 77.389 459.173 76.6072 458.783 76.2079C458.385 75.792 457.691 75.5758 456.704 75.5758L452.995 75.3762V66.8921H472.024ZM458.61 58.0421C457.128 56.6448 456.392 54.8648 456.392 52.6855C456.392 50.4897 457.128 48.6598 458.61 47.1959C460.109 45.732 462.059 45 464.468 45C466.894 45 468.87 45.732 470.395 47.1959C471.92 48.6598 472.683 50.4897 472.683 52.6855C472.683 54.8648 471.92 56.6448 470.395 58.0421C468.87 59.4395 466.894 60.1382 464.468 60.1382C462.059 60.1382 460.109 59.4395 458.61 58.0421Z" fill="#001F3D"/>
<path d="M512.173 74.6442C510.483 74.0453 508.429 73.7459 506.003 73.7459C503.594 73.7459 501.67 74.2782 500.215 75.3429C498.759 76.3909 498.031 77.6718 498.031 79.2023C498.031 80.7327 498.291 81.9305 498.828 82.7955C499.357 83.6439 500.189 84.3759 501.324 84.9914C503.1 85.8564 505.223 86.6217 507.702 87.2871C510.197 87.9359 512.043 88.4432 513.247 88.8175C514.443 89.2001 515.951 89.8323 517.753 90.714C519.573 91.579 520.951 92.5355 521.878 93.5752C524.348 96.0872 525.587 99.3144 525.587 103.257C525.587 108.381 523.646 112.398 519.764 115.301C515.899 118.187 510.994 119.626 505.033 119.626C496.385 119.626 489.86 118.57 485.449 116.465V102.259L495.05 101.527V106.451C495.05 109.445 498.031 110.943 503.993 110.943C509.955 110.943 512.935 108.863 512.935 104.688C512.935 103.207 512.416 101.984 511.376 101.028C510.353 100.08 509.348 99.4309 508.36 99.0982C507.364 98.7488 506.176 98.3995 504.79 98.0668C503.404 97.7175 502.052 97.3681 500.735 97.0354C499.417 96.7027 497.996 96.2535 496.471 95.6713C494.946 95.0724 493.256 94.2323 491.411 93.1427C487.806 90.9053 486.003 87.1457 486.003 81.864C486.003 76.5905 487.944 72.5149 491.827 69.6536C495.726 66.7923 500.639 65.3617 506.558 65.3617C512.494 65.3617 518.377 66.7258 524.2 69.454V81.6976L514.634 82.4296V78.1376C514.634 76.4325 513.811 75.268 512.173 74.6442Z" fill="#001F3D"/>
<path d="M560.195 74.6442C558.505 74.0453 556.452 73.7459 554.025 73.7459C551.616 73.7459 549.693 74.2782 548.237 75.3429C546.781 76.3909 546.053 77.6718 546.053 79.2023C546.053 80.7327 546.313 81.9305 546.85 82.7955C547.379 83.6439 548.211 84.3759 549.346 84.9914C551.122 85.8564 553.245 86.6217 555.724 87.2871C558.219 87.9359 560.065 88.4432 561.27 88.8175C562.465 89.2001 563.973 89.8323 565.776 90.714C567.595 91.579 568.973 92.5355 569.9 93.5752C572.37 96.0872 573.609 99.3144 573.609 103.257C573.609 108.381 571.668 112.398 567.786 115.301C563.921 118.187 559.017 119.626 553.055 119.626C544.407 119.626 537.882 118.57 533.471 116.465V102.259L543.072 101.527V106.451C543.072 109.445 546.053 110.943 552.015 110.943C557.977 110.943 560.958 108.863 560.958 104.688C560.958 103.207 560.438 101.984 559.398 101.028C558.375 100.08 557.37 99.4309 556.382 99.0982C555.386 98.7488 554.199 98.3995 552.812 98.0668C551.426 97.7175 550.074 97.3681 548.757 97.0354C547.44 96.7027 546.018 96.2535 544.493 95.6713C542.968 95.0724 541.278 94.2323 539.433 93.1427C535.828 90.9053 534.026 87.1457 534.026 81.864C534.026 76.5905 535.967 72.5149 539.849 69.6536C543.748 66.7923 548.661 65.3617 554.58 65.3617C560.516 65.3617 566.399 66.7258 572.223 69.454V81.6976L562.656 82.4296V78.1376C562.656 76.4325 561.833 75.268 560.195 74.6442Z" fill="#001F3D"/>
<path d="M592.134 56.0459H599.067V66.8921H613.243L612.169 75.476H599.067V102.359C599.067 105.353 599.63 107.449 600.765 108.647C601.892 109.828 603.651 110.41 606.034 110.41C608.408 110.41 610.817 109.703 613.243 108.281L616.432 116.133C612.871 118.528 608.365 119.726 602.914 119.726C599.699 119.726 596.996 119.327 594.803 118.528C592.602 117.755 590.973 116.89 589.916 115.933C588.85 114.985 588.027 113.588 587.455 111.741C586.901 109.903 586.571 108.464 586.485 107.416C586.415 106.351 586.381 104.804 586.381 102.758V75.476H578.824L579.899 68.0233C583.226 67.7405 585.739 66.5927 587.455 64.5964C589.162 62.5836 590.722 59.7306 592.134 56.0459Z" fill="#001F3D"/>
<path d="M647.182 65.3617C652.52 65.3617 656.749 66.6093 659.868 69.088C662.988 71.575 664.548 75.0684 664.548 79.5683C664.548 82.5626 663.863 85.2077 662.503 87.4867C661.16 89.7741 659.496 91.5624 657.511 92.8433C655.518 94.1325 653.118 95.1889 650.302 96.004C645.536 97.3847 640.181 98.0668 634.219 98.0668C634.427 101.685 635.588 104.604 637.72 106.817C639.843 109.013 643.101 110.111 647.494 110.111C651.905 110.111 656.316 108.614 660.735 105.619L664.756 113.904C663.343 115.126 660.952 116.391 657.581 117.697C654.201 118.977 650.354 119.626 646.038 119.626C637.373 119.626 631.013 117.331 626.975 112.739C622.928 108.131 620.909 101.81 620.909 93.7749C620.909 85.7234 623.205 78.986 627.806 73.5463C632.425 68.0899 638.881 65.3617 647.182 65.3617ZM642.364 88.7177C644.947 88.2769 647.338 87.2871 649.539 85.7566C651.732 84.2095 652.832 82.3797 652.832 80.267C652.832 76.1248 650.7 74.0453 646.454 74.0453C642.477 74.0453 639.427 75.5675 637.304 78.6034C635.172 81.6227 633.994 85.2493 633.768 89.4829C636.905 89.4164 639.773 89.1669 642.364 88.7177Z" fill="#001F3D"/>
<path d="M691.266 66.8921V109.811L697.367 110.111V118.295H671.994V110.543L675.53 110.211C677.584 110.011 678.615 108.93 678.615 106.95V78.5369C678.615 77.389 678.415 76.6072 678.025 76.2079C677.627 75.792 676.934 75.5758 675.946 75.5758L672.237 75.3762V66.8921H691.266ZM677.852 58.0421C676.37 56.6448 675.634 54.8648 675.634 52.6855C675.634 50.4897 676.37 48.6598 677.852 47.1959C679.351 45.732 681.301 45 683.71 45C686.136 45 688.112 45.732 689.637 47.1959C691.162 48.6598 691.925 50.4897 691.925 52.6855C691.925 54.8648 691.162 56.6448 689.637 58.0421C688.112 59.4395 686.136 60.1382 683.71 60.1382C681.301 60.1382 679.351 59.4395 677.852 58.0421Z" fill="#001F3D"/>
<path d="M702.889 75.0767V66.8921H720.878V73.513C722.724 71.0094 725.176 69.0215 728.227 67.5575C731.277 66.0936 734.578 65.3617 738.14 65.3617C743.521 65.3617 747.68 66.8505 750.618 69.82C753.573 72.7727 755.055 77.2061 755.055 83.1282V109.811L761.12 110.111V118.295H735.783V110.543L739.318 110.211C740.376 110.078 741.155 109.795 741.641 109.346C742.143 108.905 742.403 108.073 742.403 106.85V85.7899C742.403 82.0469 741.788 79.2688 740.566 77.4722C739.362 75.659 737.074 74.744 733.703 74.744C730.324 74.744 727.646 75.7754 725.662 77.8382C723.669 79.8843 722.681 82.2965 722.681 85.0912V109.811L728.747 110.111V118.295H703.409V110.543L706.944 110.211C708.002 110.078 708.782 109.795 709.267 109.346C709.769 108.905 710.029 108.073 710.029 106.85V78.5369C710.029 76.4991 709.137 75.4427 707.36 75.3762L702.889 75.0767Z" fill="#001F3D"/>
<path d="M794.125 65.3617C799.463 65.3617 803.691 66.6093 806.811 69.088C809.93 71.575 811.49 75.0684 811.49 79.5683C811.49 82.5626 810.806 85.2077 809.445 87.4867C808.102 89.7741 806.438 91.5624 804.454 92.8433C802.461 94.1325 800.06 95.1889 797.244 96.004C792.478 97.3847 787.123 98.0668 781.161 98.0668C781.369 101.685 782.53 104.604 784.662 106.817C786.785 109.013 790.043 110.111 794.437 110.111C798.847 110.111 803.258 108.614 807.677 105.619L811.698 113.904C810.286 115.126 807.894 116.391 804.523 117.697C801.144 118.977 797.296 119.626 792.981 119.626C784.315 119.626 777.955 117.331 773.917 112.739C769.87 108.131 767.851 101.81 767.851 93.7749C767.851 85.7234 770.148 78.986 774.749 73.5463C779.367 68.0899 785.823 65.3617 794.125 65.3617ZM789.307 88.7177C791.889 88.2769 794.281 87.2871 796.482 85.7566C798.674 84.2095 799.774 82.3797 799.774 80.267C799.774 76.1248 797.643 74.0453 793.397 74.0453C789.419 74.0453 786.369 75.5675 784.246 78.6034C782.114 81.6227 780.936 85.2493 780.711 89.4829C783.848 89.4164 786.716 89.1669 789.307 88.7177Z" fill="#001F3D"/>
<path d="M825.558 106.85V78.5369C825.558 77.4556 825.358 76.6904 824.968 76.2412C824.57 75.8004 823.876 75.5425 822.889 75.476L818.417 75.1765V66.8921H836.407V74.5444C837.672 71.8827 839.665 69.6869 842.368 67.9568C845.072 66.2267 848.174 65.3617 851.692 65.3617C855.202 65.3617 858.555 66.1103 861.744 67.5908V82.8288L851.866 83.5608V78.8363C851.866 77.4889 851.502 76.6321 850.791 76.2745C850.003 75.9418 849.041 75.7754 847.914 75.7754C845.072 75.7754 842.732 76.7569 840.913 78.7032C839.11 80.6329 838.209 83.095 838.209 86.0893V109.811L847.498 110.211V118.295H818.937V110.543L822.473 110.211C823.53 110.078 824.31 109.795 824.795 109.346C825.298 108.905 825.558 108.073 825.558 106.85Z" fill="#001F3D"/>
<path d="M314.884 248.983L332.006 201.339L325.317 200.74V192.456H349.684L371.417 251.445H371.521L377.586 251.744V260.428H350.134V252.143L354.155 251.844C355.377 251.711 356.2 251.445 356.616 251.046C357.049 250.63 357.084 249.873 356.72 248.783L354.502 242.428H329.58L326.391 251.445L332.769 251.744V260.428H308.159V252.143L311.695 251.844C313.168 251.711 314.234 250.763 314.884 248.983ZM342.024 203.901L332.145 233.046H351.937L342.336 203.901H342.024Z" fill="#001F3D"/>
<path d="M438.094 252.343V260.428H420.832V253.774C416.924 259.097 411.17 261.759 403.571 261.759C392.566 261.759 387.072 255.861 387.072 244.059V220.47C387.072 218.632 386.179 217.675 384.403 217.608L381.006 217.409V209.025H399.758V241.43C399.758 245.024 400.287 247.743 401.352 249.582C402.41 251.428 404.611 252.343 407.938 252.343C411.283 252.343 413.969 251.362 415.98 249.382C418.007 247.411 419.03 245.024 419.03 242.229V220.669C419.03 219.588 418.831 218.823 418.441 218.374C418.042 217.933 417.349 217.675 416.361 217.608L412.964 217.409V209.025H431.681V249.083C431.681 250.172 431.855 250.904 432.201 251.278C432.565 251.661 433.284 251.911 434.35 252.044L438.094 252.343Z" fill="#001F3D"/>
<path d="M456.379 198.178H463.312V209.025H477.488L476.414 217.608H463.312V244.491C463.312 247.486 463.875 249.582 465.01 250.779C466.136 251.96 467.896 252.543 470.279 252.543C472.653 252.543 475.062 251.836 477.488 250.413L480.677 258.265C477.116 260.661 472.61 261.858 467.159 261.858C463.944 261.858 461.241 261.459 459.048 260.661C456.847 259.887 455.218 259.022 454.161 258.066C453.095 257.117 452.272 255.72 451.7 253.874C451.145 252.035 450.816 250.596 450.729 249.548C450.66 248.484 450.625 246.937 450.625 244.89V217.608H443.069L444.144 210.156C447.471 209.873 449.984 208.725 451.7 206.729C453.407 204.716 454.967 201.863 456.379 198.178Z" fill="#001F3D"/>
<path d="M509.208 252.975C516.946 252.975 520.82 246.978 520.82 234.976C520.82 228.921 519.936 224.329 518.185 221.202C516.452 218.058 513.541 216.477 509.451 216.477C505.378 216.477 502.388 217.974 500.473 220.969C498.55 223.963 497.596 228.055 497.596 233.246C497.596 242.853 499.442 248.883 503.142 251.345C504.754 252.435 506.782 252.975 509.208 252.975ZM484.702 234.676C484.702 229.644 485.482 225.277 487.059 221.568C488.628 217.841 490.716 214.997 493.333 213.017C498.368 209.341 503.948 207.494 510.075 207.494C514.321 207.494 517.917 208.16 520.854 209.49C523.809 210.821 526.123 212.352 527.787 214.082C529.45 215.812 530.872 218.332 532.05 221.634C533.229 224.945 533.818 228.846 533.818 233.346C533.818 242.753 531.435 249.873 526.678 254.705C521.912 259.546 515.828 261.958 508.411 261.958C500.993 261.958 495.179 259.663 490.976 255.071C486.791 250.463 484.702 243.659 484.702 234.676Z" fill="#001F3D"/>
<path d="M540.3 217.309V209.025H558.29V215.645C562.258 210.214 567.7 207.494 574.615 207.494C581.548 207.494 586.227 210.214 588.653 215.645C592.622 210.214 598.02 207.494 604.84 207.494C609.944 207.494 613.869 208.983 616.625 211.952C619.398 214.905 620.784 219.339 620.784 225.261V251.944L626.85 252.243V260.428H601.513V252.676L605.048 252.343C606.105 252.21 606.868 251.927 607.336 251.478C607.795 251.037 608.064 250.239 608.133 249.083V227.922C608.133 224.179 607.682 221.401 606.781 219.605C605.897 217.791 603.818 216.877 600.542 216.877C597.284 216.877 594.788 217.833 593.055 219.738C591.322 221.651 590.456 224.213 590.456 227.423V251.944L596.313 252.243V260.428H571.184V252.676L574.685 252.343C575.742 252.21 576.522 251.927 577.007 251.478C577.509 251.037 577.769 250.205 577.769 248.983V227.922C577.769 224.179 577.319 221.401 576.418 219.605C575.534 217.791 573.445 216.877 570.144 216.877C566.86 216.877 564.364 217.875 562.657 219.871C560.941 221.85 560.092 224.296 560.092 227.224V251.944L565.846 252.243V260.428H540.716V252.676L544.252 252.343C545.309 252.21 546.089 251.927 546.574 251.478C547.077 251.037 547.337 250.205 547.337 248.983H547.441V220.769C547.441 219.621 547.241 218.823 546.851 218.374C546.453 217.933 545.759 217.675 544.772 217.608L540.3 217.309Z" fill="#001F3D"/>
<path d="M682.07 211.56V249.588C682.07 250.678 682.252 251.435 682.625 251.851C683.015 252.25 683.717 252.483 684.739 252.549L688.136 252.749V260.934H671.187V255.012L670.875 254.912C667.339 259.819 662.469 262.265 656.282 262.265C649.047 262.265 643.683 260.06 640.199 255.644C636.733 251.21 635 245.13 635 237.411C635 228.162 637.331 220.959 642.002 215.785C646.69 210.595 653.726 208 663.111 208C669.142 208 675.459 209.189 682.07 211.56ZM669.696 244.698V218.214C667.703 217.332 664.982 216.883 661.516 216.883C656.75 216.883 653.31 218.73 651.187 222.406C649.055 226.091 647.998 230.957 647.998 237.012C647.998 248.058 651.681 253.581 659.055 253.581C662.175 253.581 664.722 252.683 666.715 250.886C668.7 249.073 669.696 247.01 669.696 244.698Z" fill="#001F3D"/>
<path d="M705.33 198.178H712.262V209.025H726.438L725.364 217.608H712.262V244.491C712.262 247.486 712.825 249.582 713.96 250.779C715.087 251.96 716.846 252.543 719.229 252.543C721.603 252.543 724.012 251.836 726.438 250.413L729.627 258.265C726.066 260.661 721.56 261.858 716.109 261.858C712.894 261.858 710.191 261.459 707.999 260.661C705.797 259.887 704.168 259.022 703.111 258.066C702.045 257.117 701.222 255.72 700.65 253.874C700.096 252.035 699.766 250.596 699.68 249.548C699.61 248.484 699.576 246.937 699.576 244.89V217.608H692.02L693.094 210.156C696.422 209.873 698.935 208.725 700.65 206.729C702.357 204.716 703.917 201.863 705.33 198.178Z" fill="#001F3D"/>
<path d="M752.925 209.025V251.944L759.026 252.243V260.428H733.653V252.676L737.189 252.343C739.243 252.143 740.274 251.062 740.274 249.083V220.669C740.274 219.522 740.074 218.74 739.685 218.34C739.286 217.925 738.593 217.708 737.605 217.708L733.896 217.509V209.025H752.925ZM739.511 200.175C738.029 198.777 737.293 196.997 737.293 194.818C737.293 192.622 738.029 190.792 739.511 189.328C741.01 187.864 742.96 187.132 745.369 187.132C747.795 187.132 749.771 187.864 751.296 189.328C752.821 190.792 753.584 192.622 753.584 194.818C753.584 196.997 752.821 198.777 751.296 200.175C749.771 201.572 747.795 202.271 745.369 202.271C742.96 202.271 741.01 201.572 739.511 200.175Z" fill="#001F3D"/>
<path d="M789.677 252.975C797.415 252.975 801.288 246.978 801.288 234.976C801.288 228.921 800.404 224.329 798.654 221.202C796.921 218.058 794.009 216.477 789.919 216.477C785.847 216.477 782.857 217.974 780.942 220.969C779.018 223.963 778.065 228.055 778.065 233.246C778.065 242.853 779.911 248.883 783.611 251.345C785.223 252.435 787.25 252.975 789.677 252.975ZM765.171 234.676C765.171 229.644 765.951 225.277 767.528 221.568C769.096 217.841 771.185 214.997 773.802 213.017C778.836 209.341 784.417 207.494 790.543 207.494C794.789 207.494 798.385 208.16 801.323 209.49C804.278 210.821 806.592 212.352 808.255 214.082C809.919 215.812 811.34 218.332 812.519 221.634C813.697 224.945 814.286 228.846 814.286 233.346C814.286 242.753 811.903 249.873 807.146 254.705C802.38 259.546 796.297 261.958 788.88 261.958C781.462 261.958 775.647 259.663 771.445 255.071C767.259 250.463 765.171 243.659 765.171 234.676Z" fill="#001F3D"/>
<path d="M820.769 217.209V209.025H838.758V215.645C840.604 213.142 843.056 211.154 846.106 209.69C849.156 208.226 852.458 207.494 856.019 207.494C861.401 207.494 865.56 208.983 868.498 211.952C871.452 214.905 872.934 219.339 872.934 225.261V251.944L879 252.243V260.428H853.662V252.676L857.198 252.343C858.255 252.21 859.035 251.927 859.52 251.478C860.023 251.037 860.283 250.205 860.283 248.983V227.922C860.283 224.179 859.667 221.401 858.446 219.605C857.241 217.791 854.954 216.877 851.583 216.877C848.203 216.877 845.526 217.908 843.541 219.971C841.548 222.017 840.56 224.429 840.56 227.224V251.944L846.626 252.243V260.428H821.288V252.676L824.824 252.343C825.881 252.21 826.661 251.927 827.146 251.478C827.649 251.037 827.909 250.205 827.909 248.983V220.669C827.909 218.632 827.016 217.575 825.24 217.509L820.769 217.209Z" fill="#001F3D"/>
</svg>
