<svg width="300" height="300" viewBox="0 0 300 300" fill="none" xmlns="http://www.w3.org/2000/svg">
<g clip-path="url(#clip0_209_2)">
<mask id="mask0_209_2" style="mask-type:luminance" maskUnits="userSpaceOnUse" x="123" y="0" width="177" height="300">
<path d="M123.939 0H300V300H123.939V0Z" fill="white"/>
</mask>
<g mask="url(#mask0_209_2)">
<path d="M298.588 130.149L279.498 123.366C276.075 106.61 269.474 91.016 260.372 77.2196L269.067 58.9216C260.992 48.3762 251.551 38.9355 241.011 30.8597L222.713 39.5607C208.916 30.4533 193.322 23.8573 176.561 20.429L169.778 1.34428C163.286 0.489819 156.669 0.041748 149.943 0.041748C143.216 0.041748 136.599 0.489819 130.108 1.34428L126.283 12.1084L125.189 15.1824V50.0591C133.119 48.1001 141.408 47.0633 149.943 47.0633C206.79 47.0633 252.864 93.1418 252.864 149.984C252.864 194.734 224.307 232.815 184.418 246.992C180.302 248.461 176.066 249.67 171.721 250.597L180.568 241.771L201.507 220.868V202.925C209.698 201.075 215.814 193.75 215.814 185.002C215.814 174.847 207.588 166.626 197.438 166.626C187.289 166.626 179.062 174.847 179.062 185.002C179.062 193.744 185.174 201.065 193.359 202.919V217.492L164.906 245.898L163.057 247.737V175.941L201.507 137.563V119.615C209.698 117.765 215.814 110.439 215.814 101.697C215.814 91.5423 207.588 83.3155 197.438 83.3155C187.289 83.3155 179.062 91.5423 179.062 101.697C179.062 110.439 185.174 117.76 193.359 119.615V134.182L154.913 172.56V299.849C155.585 299.828 156.242 299.802 156.909 299.771C158.967 299.672 161.019 299.536 163.057 299.359C163.723 299.302 164.39 299.245 165.052 299.177C166.636 299.021 168.209 298.838 169.778 298.625L176.561 279.54C193.322 276.117 208.916 269.516 222.713 260.413L241.011 269.104C251.551 261.039 260.992 251.593 269.067 241.053L260.372 222.749C269.474 208.958 276.075 193.364 279.498 176.608L298.588 169.814C299.442 163.328 299.89 156.711 299.89 149.984C299.89 143.258 299.442 136.641 298.588 130.149Z" fill="#003970"/>
</g>
<mask id="mask1_209_2" style="mask-type:luminance" maskUnits="userSpaceOnUse" x="0" y="21" width="180" height="279">
<path d="M0 21.2365H179.958V300H0V21.2365Z" fill="white"/>
</mask>
<g mask="url(#mask1_209_2)">
<path d="M161.561 91.9851C155.064 91.9851 149.802 86.7228 149.802 80.2206C149.802 73.7287 155.064 68.4613 161.561 68.4613C168.058 68.4613 173.326 73.7287 173.326 80.2206C173.326 86.7228 168.058 91.9851 161.561 91.9851ZM98.4613 133.588C91.959 133.588 86.6915 128.321 86.6915 121.818C86.6915 115.327 91.959 110.059 98.4613 110.059C104.953 110.059 110.221 115.327 110.221 121.818C110.221 128.321 104.953 133.588 98.4613 133.588ZM47.0215 149.984C47.0215 107.605 72.6346 71.2122 109.215 55.4411V78.5012L136.818 105.98V212.725L102.536 178.427V139.741C110.721 137.892 116.837 130.571 116.837 121.818C116.837 111.674 108.605 103.442 98.4613 103.442C88.3119 103.442 80.0799 111.674 80.0799 121.818C80.0799 130.571 86.2018 137.897 94.3921 139.741V181.808L136.818 224.239V252.077C86.1757 245.632 47.0215 202.378 47.0215 149.984ZM161.561 61.8444C151.412 61.8444 143.19 70.0712 143.19 80.2206C143.19 88.9736 149.297 96.2887 157.487 98.1435V131.884L144.957 144.389V102.598L117.364 75.1199V21.7993C116.952 21.9035 116.546 22.0025 116.139 22.1119C113.81 22.7319 111.497 23.404 109.215 24.1438C97.7735 27.8378 87.0198 33.0636 77.1778 39.5606L58.8798 30.8597C48.3345 38.9354 38.8937 48.3762 30.818 58.9215L39.5189 77.2195C30.4116 91.016 23.8103 106.61 20.3821 123.366L1.30254 130.149C0.448071 136.641 0 143.258 0 149.984C0 156.711 0.448071 163.328 1.30254 169.814L20.3821 176.608C23.8103 193.364 30.4064 208.958 39.5189 222.749L30.818 241.052C38.8937 251.593 48.3345 261.039 58.8798 269.104L77.1778 260.413C90.9743 269.515 106.568 276.117 123.324 279.54L130.108 298.625C132.332 298.922 134.568 299.166 136.818 299.359C137.48 299.417 138.147 299.474 138.814 299.521C140.851 299.672 142.899 299.781 144.957 299.849V155.893L165.63 135.261V98.1487C173.826 96.2939 179.937 88.9736 179.937 80.2206C179.937 70.0712 171.711 61.8444 161.561 61.8444Z" fill="#001F3D"/>
</g>
</g>
<defs>
<clipPath id="clip0_209_2">
<rect width="300" height="300" fill="white"/>
</clipPath>
</defs>
</svg>
