<svg width="960" height="400" viewBox="0 0 960 400" fill="none" xmlns="http://www.w3.org/2000/svg">
<path d="M360.997 189.292L359.164 189.458C358.19 189.542 357.57 190.219 357.31 191.479L350.247 222H342.581L336.706 197.083H336.539L330.831 222H322.935L315.206 189.687L311.997 189.521V184.75H325.893V189.292L324.039 189.458C322.883 189.573 322.31 190.057 322.31 190.917C322.31 191.073 322.331 191.24 322.372 191.417L327.247 213.042H327.456L333.289 187.729H340.518L346.56 213.146H346.664L351.435 189.75L348.414 189.521V184.75H360.997V189.292Z" fill="#001F3D"/>
<path d="M377.182 193C379.985 193 382.208 193.682 383.849 195.042C385.5 196.406 386.328 198.312 386.328 200.771C386.328 202.427 385.964 203.875 385.245 205.125C384.537 206.375 383.662 207.354 382.62 208.062C381.578 208.771 380.307 209.349 378.807 209.792C376.307 210.542 373.485 210.917 370.349 210.917C370.474 212.891 371.089 214.49 372.203 215.708C373.328 216.917 375.042 217.521 377.349 217.521C379.667 217.521 381.985 216.703 384.307 215.062L386.432 219.583C385.682 220.266 384.417 220.958 382.641 221.667C380.875 222.375 378.854 222.729 376.578 222.729C372.021 222.729 368.672 221.474 366.537 218.958C364.412 216.432 363.349 212.969 363.349 208.562C363.349 204.161 364.563 200.469 366.995 197.479C369.422 194.495 372.818 193 377.182 193ZM374.641 205.792C376 205.542 377.255 205 378.412 204.167C379.578 203.323 380.162 202.323 380.162 201.167C380.162 198.891 379.042 197.75 376.807 197.75C374.708 197.75 373.099 198.583 371.974 200.25C370.86 201.906 370.25 203.891 370.141 206.208C371.776 206.167 373.276 206.031 374.641 205.792Z" fill="#001F3D"/>
<path d="M400.37 193.833V217.354L403.557 217.521V222H390.245V217.75L392.078 217.583C393.161 217.474 393.703 216.875 393.703 215.792V200.208C393.703 199.583 393.599 199.161 393.39 198.937C393.193 198.703 392.833 198.583 392.307 198.583L390.349 198.479V193.833H400.37ZM393.307 189C392.526 188.224 392.14 187.24 392.14 186.042C392.14 184.849 392.526 183.854 393.307 183.062C394.099 182.26 395.125 181.854 396.39 181.854C397.667 181.854 398.703 182.26 399.495 183.062C400.297 183.854 400.703 184.849 400.703 186.042C400.703 187.24 400.297 188.224 399.495 189C398.703 189.766 397.667 190.146 396.39 190.146C395.125 190.146 394.099 189.766 393.307 189Z" fill="#001F3D"/>
<path d="M421.487 198.083C420.581 197.75 419.498 197.583 418.237 197.583C416.972 197.583 415.951 197.875 415.175 198.458C414.409 199.031 414.029 199.74 414.029 200.583C414.029 201.417 414.164 202.073 414.446 202.542C414.737 203.016 415.18 203.417 415.779 203.75C416.706 204.24 417.826 204.661 419.133 205.021C420.435 205.37 421.409 205.646 422.05 205.854C422.685 206.052 423.477 206.391 424.425 206.875C425.383 207.365 426.102 207.891 426.591 208.458C427.894 209.833 428.55 211.604 428.55 213.771C428.55 216.562 427.529 218.76 425.487 220.354C423.456 221.937 420.873 222.729 417.737 222.729C413.18 222.729 409.743 222.151 407.425 221V213.208L412.466 212.812V215.5C412.466 217.141 414.034 217.958 417.175 217.958C420.31 217.958 421.883 216.823 421.883 214.542C421.883 213.724 421.612 213.057 421.071 212.542C420.529 212.016 419.993 211.661 419.466 211.479C418.951 211.286 418.326 211.099 417.591 210.917C416.868 210.724 416.159 210.536 415.466 210.354C414.769 210.161 414.019 209.911 413.216 209.604C412.425 209.286 411.539 208.828 410.571 208.229C408.664 206.995 407.716 204.932 407.716 202.042C407.716 199.141 408.737 196.911 410.779 195.354C412.831 193.786 415.414 193 418.529 193C421.654 193 424.748 193.745 427.821 195.229V201.958L422.779 202.354V200C422.779 199.057 422.347 198.417 421.487 198.083Z" fill="#001F3D"/>
<path d="M446.743 198.083C445.837 197.75 444.754 197.583 443.493 197.583C442.228 197.583 441.207 197.875 440.431 198.458C439.665 199.031 439.285 199.74 439.285 200.583C439.285 201.417 439.42 202.073 439.702 202.542C439.993 203.016 440.436 203.417 441.035 203.75C441.962 204.24 443.082 204.661 444.389 205.021C445.691 205.37 446.665 205.646 447.306 205.854C447.941 206.052 448.733 206.391 449.681 206.875C450.639 207.365 451.358 207.891 451.848 208.458C453.15 209.833 453.806 211.604 453.806 213.771C453.806 216.562 452.785 218.76 450.743 220.354C448.712 221.937 446.129 222.729 442.993 222.729C438.436 222.729 434.999 222.151 432.681 221V213.208L437.723 212.812V215.5C437.723 217.141 439.29 217.958 442.431 217.958C445.566 217.958 447.139 216.823 447.139 214.542C447.139 213.724 446.868 213.057 446.327 212.542C445.785 212.016 445.249 211.661 444.723 211.479C444.207 211.286 443.582 211.099 442.848 210.917C442.124 210.724 441.415 210.536 440.723 210.354C440.025 210.161 439.275 209.911 438.473 209.604C437.681 209.286 436.795 208.828 435.827 208.229C433.92 206.995 432.973 204.932 432.973 202.042C432.973 199.141 433.993 196.911 436.035 195.354C438.087 193.786 440.67 193 443.785 193C446.91 193 450.004 193.745 453.077 195.229V201.958L448.035 202.354V200C448.035 199.057 447.603 198.417 446.743 198.083Z" fill="#001F3D"/>
<path d="M463.541 187.896H467.187V193.833H474.624L474.062 198.542H467.187V213.271C467.187 214.911 467.484 216.057 468.083 216.708C468.676 217.365 469.604 217.687 470.854 217.687C472.104 217.687 473.359 217.302 474.624 216.521L476.312 220.833C474.447 222.135 472.083 222.792 469.208 222.792C467.525 222.792 466.104 222.573 464.937 222.146C463.781 221.719 462.921 221.245 462.354 220.729C461.796 220.203 461.364 219.432 461.062 218.417C460.77 217.406 460.604 216.615 460.562 216.042C460.531 215.458 460.52 214.604 460.52 213.479V198.542H456.541L457.104 194.458C458.854 194.307 460.171 193.682 461.062 192.583C461.963 191.474 462.791 189.911 463.541 187.896Z" fill="#001F3D"/>
<path d="M492.486 193C495.288 193 497.512 193.682 499.153 195.042C500.804 196.406 501.632 198.312 501.632 200.771C501.632 202.427 501.268 203.875 500.549 205.125C499.841 206.375 498.966 207.354 497.924 208.062C496.882 208.771 495.611 209.349 494.111 209.792C491.611 210.542 488.788 210.917 485.653 210.917C485.778 212.891 486.393 214.49 487.507 215.708C488.632 216.917 490.346 217.521 492.653 217.521C494.971 217.521 497.288 216.703 499.611 215.062L501.736 219.583C500.986 220.266 499.721 220.958 497.945 221.667C496.179 222.375 494.158 222.729 491.882 222.729C487.325 222.729 483.976 221.474 481.841 218.958C479.716 216.432 478.653 212.969 478.653 208.562C478.653 204.161 479.867 200.469 482.299 197.479C484.726 194.495 488.122 193 492.486 193ZM489.945 205.792C491.304 205.542 492.559 205 493.716 204.167C494.882 203.323 495.466 202.323 495.466 201.167C495.466 198.891 494.346 197.75 492.111 197.75C490.012 197.75 488.403 198.583 487.278 200.25C486.163 201.906 485.554 203.891 485.445 206.208C487.08 206.167 488.58 206.031 489.945 205.792Z" fill="#001F3D"/>
<path d="M515.674 193.833V217.354L518.861 217.521V222H505.549V217.75L507.382 217.583C508.465 217.474 509.007 216.875 509.007 215.792V200.208C509.007 199.583 508.903 199.161 508.695 198.937C508.497 198.703 508.137 198.583 507.611 198.583L505.653 198.479V193.833H515.674ZM508.611 189C507.83 188.224 507.445 187.24 507.445 186.042C507.445 184.849 507.83 183.854 508.611 183.062C509.403 182.26 510.429 181.854 511.695 181.854C512.971 181.854 514.007 182.26 514.799 183.062C515.601 183.854 516.007 184.849 516.007 186.042C516.007 187.24 515.601 188.224 514.799 189C514.007 189.766 512.971 190.146 511.695 190.146C510.429 190.146 509.403 189.766 508.611 189Z" fill="#001F3D"/>
<path d="M521.792 198.312V193.833H531.25V197.479C532.219 196.094 533.505 195 535.104 194.208C536.713 193.406 538.448 193 540.312 193C543.156 193 545.354 193.812 546.896 195.437C548.448 197.052 549.229 199.479 549.229 202.729V217.354L552.417 217.521V222H539.083V217.75L540.937 217.583C541.489 217.5 541.901 217.344 542.167 217.104C542.427 216.854 542.562 216.396 542.562 215.729V204.187C542.562 202.135 542.239 200.615 541.604 199.625C540.963 198.641 539.755 198.146 537.979 198.146C536.213 198.146 534.812 198.708 533.771 199.833C532.729 200.948 532.208 202.266 532.208 203.792V217.354L535.396 217.521V222H522.062V217.75L523.917 217.583C524.469 217.5 524.88 217.344 525.146 217.104C525.406 216.854 525.542 216.396 525.542 215.729V200.208C525.542 199.099 525.068 198.521 524.125 198.479L521.792 198.312Z" fill="#001F3D"/>
<path d="M569.766 193C572.569 193 574.792 193.682 576.433 195.042C578.084 196.406 578.912 198.312 578.912 200.771C578.912 202.427 578.548 203.875 577.829 205.125C577.121 206.375 576.246 207.354 575.204 208.062C574.162 208.771 572.891 209.349 571.391 209.792C568.891 210.542 566.069 210.917 562.933 210.917C563.058 212.891 563.673 214.49 564.787 215.708C565.912 216.917 567.626 217.521 569.933 217.521C572.251 217.521 574.569 216.703 576.891 215.062L579.016 219.583C578.266 220.266 577.001 220.958 575.225 221.667C573.459 222.375 571.438 222.729 569.162 222.729C564.605 222.729 561.256 221.474 559.121 218.958C556.996 216.432 555.933 212.969 555.933 208.562C555.933 204.161 557.147 200.469 559.579 197.479C562.006 194.495 565.402 193 569.766 193ZM567.225 205.792C568.584 205.542 569.839 205 570.996 204.167C572.162 203.323 572.746 202.323 572.746 201.167C572.746 198.891 571.626 197.75 569.391 197.75C567.292 197.75 565.683 198.583 564.558 200.25C563.444 201.906 562.834 203.891 562.725 206.208C564.36 206.167 565.86 206.031 567.225 205.792Z" fill="#001F3D"/>
<path d="M586.287 215.729V200.208C586.287 199.615 586.183 199.198 585.975 198.958C585.777 198.708 585.417 198.573 584.891 198.542L582.537 198.375V193.833H592.016V198.042C592.683 196.583 593.725 195.385 595.141 194.437C596.558 193.479 598.188 193 600.037 193C601.881 193 603.646 193.411 605.329 194.229V202.562L600.12 202.958V200.375C600.12 199.641 599.933 199.177 599.558 198.979C599.152 198.802 598.652 198.708 598.058 198.708C596.558 198.708 595.329 199.245 594.37 200.312C593.423 201.37 592.954 202.719 592.954 204.354V217.354L597.829 217.583V222H582.829V217.75L584.662 217.583C585.23 217.5 585.641 217.344 585.891 217.104C586.152 216.854 586.287 216.396 586.287 215.729Z" fill="#001F3D"/>
<path d="M621.859 215.729L630.88 189.625L627.338 189.292V184.75H640.172L651.588 217.062H651.651L654.838 217.25V222H640.401V217.458L642.526 217.292C643.151 217.224 643.573 217.078 643.797 216.854C644.031 216.635 644.052 216.224 643.859 215.625L642.692 212.146H629.588L627.901 217.062L631.255 217.25V222H618.317V217.458L620.172 217.292C620.963 217.224 621.526 216.703 621.859 215.729ZM636.13 191.042L630.922 207H641.338L636.297 191.042H636.13Z" fill="#001F3D"/>
<path d="M686.639 217.583V222H677.577V218.354C675.52 221.271 672.494 222.729 668.494 222.729C662.712 222.729 659.827 219.5 659.827 213.042V200.104C659.827 199.094 659.358 198.573 658.431 198.542L656.639 198.417V193.833H666.494V211.583C666.494 213.557 666.77 215.052 667.327 216.062C667.879 217.078 669.035 217.583 670.785 217.583C672.546 217.583 673.957 217.042 675.014 215.958C676.082 214.875 676.619 213.573 676.619 212.042V200.208C676.619 199.615 676.514 199.198 676.306 198.958C676.108 198.708 675.749 198.573 675.223 198.542L673.431 198.417V193.833H683.285V215.792C683.285 216.391 683.374 216.792 683.556 217C683.749 217.198 684.124 217.333 684.681 217.417L686.639 217.583Z" fill="#001F3D"/>
<path d="M696.277 187.896H699.923V193.833H707.36L706.798 198.542H699.923V213.271C699.923 214.911 700.22 216.057 700.819 216.708C701.413 217.365 702.34 217.687 703.59 217.687C704.84 217.687 706.095 217.302 707.36 216.521L709.048 220.833C707.183 222.135 704.819 222.792 701.944 222.792C700.261 222.792 698.84 222.573 697.673 222.146C696.517 221.719 695.657 221.245 695.09 220.729C694.532 220.203 694.1 219.432 693.798 218.417C693.506 217.406 693.34 216.615 693.298 216.042C693.267 215.458 693.256 214.604 693.256 213.479V198.542H689.277L689.84 194.458C691.59 194.307 692.907 193.682 693.798 192.583C694.699 191.474 695.527 189.911 696.277 187.896Z" fill="#001F3D"/>
<path d="M724.056 217.917C728.123 217.917 730.16 214.635 730.16 208.062C730.16 204.729 729.701 202.208 728.785 200.5C727.868 198.781 726.332 197.917 724.181 197.917C722.04 197.917 720.462 198.745 719.451 200.396C718.451 202.036 717.951 204.271 717.951 207.104C717.951 212.37 718.92 215.677 720.868 217.021C721.728 217.62 722.79 217.917 724.056 217.917ZM711.181 207.896C711.181 205.135 711.587 202.74 712.41 200.708C713.228 198.667 714.326 197.104 715.701 196.021C718.353 194.01 721.285 193 724.493 193C726.743 193 728.639 193.365 730.181 194.083C731.733 194.807 732.951 195.646 733.826 196.604C734.701 197.562 735.441 198.948 736.056 200.75C736.681 202.557 736.993 204.698 736.993 207.167C736.993 212.323 735.743 216.224 733.243 218.875C730.743 221.516 727.54 222.833 723.639 222.833C719.733 222.833 716.681 221.578 714.472 219.062C712.274 216.536 711.181 212.812 711.181 207.896Z" fill="#001F3D"/>
<path d="M740.415 198.375V193.833H749.874V197.479C751.957 194.495 754.816 193 758.457 193C762.108 193 764.566 194.495 765.832 197.479C767.915 194.495 770.754 193 774.353 193C777.03 193 779.103 193.812 780.561 195.437C782.019 197.052 782.749 199.479 782.749 202.729V217.354L785.936 217.521V222H772.603V217.75L774.457 217.583C775.009 217.5 775.405 217.344 775.644 217.104C775.894 216.854 776.04 216.417 776.082 215.792V204.187C776.082 202.135 775.842 200.615 775.374 199.625C774.915 198.641 773.822 198.146 772.103 198.146C770.379 198.146 769.061 198.667 768.144 199.708C767.238 200.75 766.79 202.156 766.79 203.917V217.354L769.853 217.521V222H756.644V217.75L758.499 217.583C759.051 217.5 759.462 217.344 759.728 217.104C759.988 216.854 760.124 216.396 760.124 215.729V204.187C760.124 202.135 759.884 200.615 759.415 199.625C758.957 198.641 757.858 198.146 756.124 198.146C754.384 198.146 753.066 198.687 752.165 199.771C751.275 200.854 750.832 202.198 750.832 203.792V217.354L753.853 217.521V222H740.624V217.75L742.478 217.583C743.03 217.5 743.441 217.344 743.707 217.104C743.967 216.854 744.103 216.396 744.103 215.729H744.165V200.271C744.165 199.635 744.061 199.198 743.853 198.958C743.644 198.708 743.275 198.573 742.749 198.542L740.415 198.375Z" fill="#001F3D"/>
<path d="M814.39 194.958V215.792C814.39 216.391 814.484 216.802 814.682 217.021C814.89 217.245 815.255 217.375 815.786 217.417L817.578 217.521V222H808.661V218.75L808.495 218.687C806.63 221.385 804.078 222.729 800.828 222.729C797.021 222.729 794.203 221.521 792.37 219.104C790.547 216.677 789.64 213.349 789.64 209.125C789.64 204.042 790.87 200.083 793.328 197.25C795.786 194.417 799.479 193 804.411 193C807.588 193 810.916 193.656 814.39 194.958ZM807.89 213.104V198.583C806.849 198.099 805.411 197.854 803.578 197.854C801.078 197.854 799.265 198.87 798.14 200.896C797.015 202.911 796.453 205.578 796.453 208.896C796.453 214.937 798.396 217.958 802.286 217.958C803.922 217.958 805.265 217.469 806.307 216.479C807.359 215.495 807.89 214.37 807.89 213.104Z" fill="#001F3D"/>
<path d="M827.205 187.896H830.851V193.833H838.288L837.726 198.542H830.851V213.271C830.851 214.911 831.148 216.057 831.747 216.708C832.34 217.365 833.268 217.687 834.518 217.687C835.768 217.687 837.023 217.302 838.288 216.521L839.976 220.833C838.111 222.135 835.747 222.792 832.872 222.792C831.189 222.792 829.768 222.573 828.601 222.146C827.445 221.719 826.585 221.245 826.018 220.729C825.46 220.203 825.028 219.432 824.726 218.417C824.434 217.406 824.268 216.615 824.226 216.042C824.195 215.458 824.184 214.604 824.184 213.479V198.542H820.205L820.768 194.458C822.518 194.307 823.835 193.682 824.726 192.583C825.627 191.474 826.455 189.911 827.205 187.896Z" fill="#001F3D"/>
<path d="M852.234 193.833V217.354L855.421 217.521V222H842.109V217.75L843.942 217.583C845.025 217.474 845.567 216.875 845.567 215.792V200.208C845.567 199.583 845.463 199.161 845.254 198.937C845.057 198.703 844.697 198.583 844.171 198.583L842.213 198.479V193.833H852.234ZM845.171 189C844.39 188.224 844.004 187.24 844.004 186.042C844.004 184.849 844.39 183.854 845.171 183.062C845.963 182.26 846.989 181.854 848.254 181.854C849.531 181.854 850.567 182.26 851.359 183.062C852.161 183.854 852.567 184.849 852.567 186.042C852.567 187.24 852.161 188.224 851.359 189C850.567 189.766 849.531 190.146 848.254 190.146C846.989 190.146 845.963 189.766 845.171 189Z" fill="#001F3D"/>
<path d="M871.56 217.917C875.627 217.917 877.664 214.635 877.664 208.062C877.664 204.729 877.205 202.208 876.289 200.5C875.372 198.781 873.836 197.917 871.685 197.917C869.544 197.917 867.966 198.745 866.955 200.396C865.955 202.036 865.455 204.271 865.455 207.104C865.455 212.37 866.424 215.677 868.372 217.021C869.231 217.62 870.294 217.917 871.56 217.917ZM858.685 207.896C858.685 205.135 859.091 202.74 859.914 200.708C860.731 198.667 861.83 197.104 863.205 196.021C865.856 194.01 868.789 193 871.997 193C874.247 193 876.143 193.365 877.685 194.083C879.237 194.807 880.455 195.646 881.33 196.604C882.205 197.562 882.945 198.948 883.56 200.75C884.185 202.557 884.497 204.698 884.497 207.167C884.497 212.323 883.247 216.224 880.747 218.875C878.247 221.516 875.044 222.833 871.143 222.833C867.237 222.833 864.185 221.578 861.976 219.062C859.778 216.536 858.685 212.812 858.685 207.896Z" fill="#001F3D"/>
<path d="M887.919 198.312V193.833H897.378V197.479C898.347 196.094 899.633 195 901.232 194.208C902.841 193.406 904.576 193 906.44 193C909.284 193 911.482 193.812 913.024 195.437C914.576 197.052 915.357 199.479 915.357 202.729V217.354L918.544 217.521V222H905.211V217.75L907.065 217.583C907.617 217.5 908.029 217.344 908.294 217.104C908.555 216.854 908.69 216.396 908.69 215.729V204.187C908.69 202.135 908.367 200.615 907.732 199.625C907.091 198.641 905.883 198.146 904.107 198.146C902.341 198.146 900.94 198.708 899.899 199.833C898.857 200.948 898.336 202.266 898.336 203.792V217.354L901.524 217.521V222H888.19V217.75L890.044 217.583C890.597 217.5 891.008 217.344 891.274 217.104C891.534 216.854 891.669 216.396 891.669 215.729V200.208C891.669 199.099 891.195 198.521 890.253 198.479L887.919 198.312Z" fill="#001F3D"/>
<mask id="mask0_210_2" style="mask-type:luminance" maskUnits="userSpaceOnUse" x="22" y="93" width="154" height="238">
<path d="M22 93H175.564V330.878H22V93Z" fill="white"/>
</mask>
<g mask="url(#mask0_210_2)">
<path d="M159.866 153.372C154.321 153.372 149.831 148.882 149.831 143.333C149.831 137.793 154.321 133.298 159.866 133.298C165.41 133.298 169.905 137.793 169.905 143.333C169.905 148.882 165.41 153.372 159.866 153.372ZM106.02 188.873C100.472 188.873 95.9768 184.378 95.9768 178.83C95.9768 173.29 100.472 168.795 106.02 168.795C111.56 168.795 116.055 173.29 116.055 178.83C116.055 184.378 111.56 188.873 106.02 188.873ZM62.125 202.865C62.125 166.701 83.9815 135.646 115.197 122.188V141.866L138.752 165.314V256.403L109.497 227.136V194.124C116.482 192.546 121.701 186.299 121.701 178.83C121.701 170.173 114.677 163.149 106.02 163.149C97.3595 163.149 90.3348 170.173 90.3348 178.83C90.3348 186.299 95.5589 192.55 102.548 194.124V230.021L138.752 266.229V289.984C95.5366 284.484 62.125 247.574 62.125 202.865ZM159.866 127.652C151.205 127.652 144.189 134.672 144.189 143.333C144.189 150.802 149.4 157.044 156.389 158.627V187.419L145.696 198.09V162.429L122.15 138.98V93.4802C121.799 93.5691 121.452 93.6536 121.106 93.7469C119.118 94.276 117.144 94.8496 115.197 95.4809C105.433 98.6331 96.2569 103.092 87.8584 108.637L72.2441 101.212C63.2454 108.103 55.1893 116.159 48.298 125.158L55.7228 140.772C47.9512 152.545 42.3182 165.852 39.3927 180.15L23.1115 185.939C22.3824 191.479 22 197.125 22 202.865C22 208.605 22.3824 214.251 23.1115 219.786L39.3927 225.584C42.3182 239.882 47.9468 253.189 55.7228 264.958L48.298 280.576C55.1893 289.571 63.2454 297.631 72.2441 304.513L87.8584 297.098C99.6314 304.865 112.938 310.498 127.237 313.419L133.025 329.704C134.924 329.958 136.831 330.167 138.752 330.331C139.316 330.38 139.885 330.429 140.454 330.469C142.193 330.598 143.94 330.691 145.696 330.749V207.907L163.338 190.3V158.632C170.331 157.049 175.547 150.802 175.547 143.333C175.547 134.672 168.526 127.652 159.866 127.652Z" fill="#001F3D"/>
</g>
<mask id="mask1_210_2" style="mask-type:luminance" maskUnits="userSpaceOnUse" x="128" y="74" width="151" height="256">
<path d="M128 74H278.239V330H128V74Z" fill="white"/>
</mask>
<g mask="url(#mask1_210_2)">
<path d="M277.034 185.061L260.744 179.272C257.823 164.974 252.19 151.667 244.422 139.894L251.843 124.28C244.952 115.281 236.895 107.225 227.901 100.334L212.287 107.758C200.514 99.9868 187.207 94.3582 172.904 91.4328L167.116 75.1471C161.576 74.418 155.93 74.0356 150.19 74.0356C144.45 74.0356 138.804 74.418 133.264 75.1471L130.001 84.3325L129.067 86.9557V116.717C135.834 115.045 142.907 114.161 150.19 114.161C198.7 114.161 238.016 153.481 238.016 201.987C238.016 240.173 213.647 272.669 179.609 284.767C176.097 286.02 172.482 287.052 168.774 287.843L176.323 280.312L194.192 262.474V247.162C201.181 245.584 206.4 239.333 206.4 231.868C206.4 223.203 199.38 216.187 190.719 216.187C182.059 216.187 175.038 223.203 175.038 231.868C175.038 239.329 180.254 245.575 187.238 247.158V259.593L162.959 283.833L161.38 285.402V224.137L194.192 191.387V176.071C201.181 174.493 206.4 168.242 206.4 160.781C206.4 152.116 199.38 145.096 190.719 145.096C182.059 145.096 175.038 152.116 175.038 160.781C175.038 168.242 180.254 174.488 187.238 176.071V188.502L154.431 221.251V329.871C155.005 329.853 155.565 329.831 156.134 329.804C157.89 329.72 159.642 329.604 161.38 329.453C161.949 329.404 162.519 329.355 163.083 329.298C164.435 329.164 165.777 329.009 167.116 328.826L172.904 312.541C187.207 309.62 200.514 303.987 212.287 296.219L227.901 303.635C236.895 296.753 244.952 288.692 251.843 279.698L244.422 264.079C252.19 252.311 257.823 239.004 260.744 224.706L277.034 218.908C277.763 213.373 278.145 207.726 278.145 201.987C278.145 196.247 277.763 190.601 277.034 185.061Z" fill="#003970"/>
</g>
</svg>
